:SAMPLES-PER-SECOND 30
:FULLY-SPECIFIED
:DEGREES
717
root  -0.931105 33.6366 64.1918 -2.46231 0.666169 89.5838
Spine  0.074558 -8.29395 -22.078
Spine1  0.233605 6.51876 4.51643
Neck  3.97569e-016 0 -2.38542e-015
Head  -20.3316 5.05639 43.6572
R_Clavicle  0.43782 -14.3188 2.36085
R_UpperArm  33.6438 -1.64266 33.7426
R_Forearm  -6.71932 -44.3196 25.8106
R_Hand  -0.219104 9.06886 -13.4205
L_Clavicle  -0.53257 19.2705 0.540723
L_UpperArm  8.35545 3.06686 24.8085
L_Forearm  -32.6181 28.6816 35.5857
L_Hand  0.746666 9.67428 5.83413
L_Thigh  -18.2728 5.29974 -7.22157
L_Calf  3.36967 -6.8356 30.769
L_Foot  1.85466 4.41868 3.15614
L_Toe0  0.505156 0.034446 -6.1361
R_Thigh  12.3025 -1.55398 -8.11892
R_Calf  2.00857 8.3974 27.1373
R_Foot  0.0610673 -1.40265 -3.67867
R_Toe0  -1.777 -0.272099 -17.317
718
root  -1.01643 33.6649 64.311 -4.11176 0.646077 89.9126
Spine  -0.206897 -9.70942 -22.5878
Spine1  -0.0594377 7.98463 4.99608
Neck  3.97569e-016 0 -2.38542e-015
Head  -19.7476 4.77731 43.7797
R_Clavicle  0.453545 -15.144 2.62629
R_UpperArm  36.8362 -4.03734 35.1266
R_Forearm  -4.66697 -43.1515 26.7384
R_Hand  -0.249438 8.7543 -13.4894
L_Clavicle  -0.531007 19.2094 0.541278
L_UpperArm  6.41307 4.21285 25.3185
L_Forearm  -30.8749 29.9265 35.9067
L_Hand  0.75213 9.65073 5.88384
L_Thigh  -18.1322 5.35805 -7.5849
L_Calf  1.74631 -7.66219 31.0704
L_Foot  1.86894 4.32795 3.31649
L_Toe0  0.505156 0.034446 -6.1361
R_Thigh  12.4644 -1.0615 -8.10752
R_Calf  1.27165 8.40102 27.1445
R_Foot  0.185948 -0.994399 -3.84873
R_Toe0  -1.60537 -0.271115 -17.2194
719
root  -1.09424 33.6819 64.4038 -6.05396 0.705331 90.2261
Spine  -0.328857 -10.6166 -22.9648
Spine1  -0.182729 8.97893 5.27962
Neck  3.97569e-016 0 -2.38542e-015
Head  -19.5843 4.63877 43.8869
R_Clavicle  0.45862 -16.314 2.81219
R_UpperArm  39.8086 -6.39456 36.5215
R_Forearm  -1.99577 -42.1419 27.7471
R_Hand  -0.338237 8.6349 -14.0908
L_Clavicle  -0.524683 19.2091 0.756675
L_UpperArm  7.80531 4.85703 25.2548
L_Forearm  -30.1012 29.3036 35.7167
L_Hand  0.741515 9.62653 5.81279
L_Thigh  -18.4061 5.42281 -7.997
L_Calf  0.187552 -8.3716 31.3452
L_Foot  1.88569 4.21023 3.51892
L_Toe0  0.505156 0.034446 -6.1361
R_Thigh  12.6405 -0.846526 -7.95547
R_Calf  1.79574 8.42187 27.2168
R_Foot  0.170805 -1.10401 -3.95187
R_Toe0  -1.22071 -0.266648 -17.0008
720
root  -1.17202 33.6793 64.4577 -8.12106 0.793422 90.4619
Spine  -0.344692 -11.3014 -23.2861
Spine1  -0.173361 9.91279 5.60735
Neck  3.97569e-016 0 -2.38542e-015
Head  -20.146 4.50614 43.8527
R_Clavicle  0.455964 -17.4243 2.90262
R_UpperArm  42.3646 -8.72551 37.603
R_Forearm  0.421632 -41.4887 28.8342
R_Hand  -0.528528 8.92679 -15.6023
L_Clavicle  -0.516813 19.5567 1.24158
L_UpperArm  10.6482 4.84447 24.5609
L_Forearm  -29.8787 27.8662 35.2489
L_Hand  0.716757 9.53751 5.65744
L_Thigh  -19.6173 5.60107 -8.3635
L_Calf  -0.433217 -8.64764 31.3091
L_Foot  1.86079 3.89938 3.77281
L_Toe0  0.505156 0.034446 -6.1361
R_Thigh  13.0174 -0.902668 -7.74531
R_Calf  3.01469 8.45455 27.333
R_Foot  0.13335 -1.26388 -3.97509
R_Toe0  -0.984959 -0.265004 -16.8667
721
root  -1.25812 33.6583 64.4742 -10.2537 0.860592 90.5995
Spine  -0.339509 -11.7343 -23.5591
Spine1  -0.108544 10.7731 6.01923
Neck  3.97569e-016 0 -2.38542e-015
Head  -21.2235 4.33147 43.564
R_Clavicle  0.451868 -18.2047 2.9358
R_UpperArm  44.3076 -11.0732 38.174
R_Forearm  2.12545 -41.2244 29.9487
R_Hand  -0.79328 9.16823 -17.572
L_Clavicle  -0.504237 20.0935 1.83356
L_UpperArm  12.8571 4.46134 23.3844
L_Forearm  -29.4315 26.5725 34.6214
L_Hand  0.69095 9.41536 5.50352
L_Thigh  -21.9757 5.88878 -8.70036
L_Calf  -0.11572 -8.33753 30.9415
L_Foot  1.89418 3.75286 4.08239
L_Toe0  0.505156 0.034446 -6.1361
R_Thigh  13.8563 -1.2209 -7.54302
R_Calf  4.22448 8.51579 27.5534
R_Foot  0.173467 -1.19396 -4.15651
R_Toe0  -0.666509 -0.266392 -16.6855
722
root  -1.35909 33.6183 64.4673 -12.5147 0.97164 90.6288
Spine  -0.393438 -11.7766 -23.6853
Spine1  -0.097979 11.2612 6.2978
Neck  3.97569e-016 0 -2.38542e-015
Head  -22.3618 4.14685 43.0671
R_Clavicle  0.449679 -18.701 2.97745
R_UpperArm  45.6316 -13.2455 38.2625
R_Forearm  2.46899 -41.4379 31.2258
R_Hand  -0.96737 9.02781 -18.8042
L_Clavicle  -0.492543 20.4866 2.23764
L_UpperArm  13.3835 4.15367 22.1262
L_Forearm  -28.2171 25.7222 33.8204
L_Hand  0.664128 9.33855 5.32423
L_Thigh  -25.0997 6.12205 -9.08633
L_Calf  0.461321 -7.54856 30.3806
L_Foot  2.0917 4.1334 4.45463
L_Toe0  0.505156 0.034446 -6.1361
R_Thigh  15.0621 -1.80416 -7.30917
R_Calf  4.65388 8.54408 27.6588
R_Foot  0.144249 -1.36939 -4.27531
R_Toe0  -0.191313 -0.270539 -16.4151
723
root  -1.47852 33.5637 64.4342 -14.904 1.2065 90.5439
Spine  -0.535068 -11.6202 -23.6509
Spine1  -0.202988 11.4948 6.33272
Neck  3.97569e-016 0 -2.38542e-015
Head  -23.0449 3.86045 42.5227
R_Clavicle  0.448719 -19.0871 3.04553
R_UpperArm  46.4017 -14.8721 38.105
R_Forearm  0.923731 -42.0774 32.7283
R_Hand  -0.931786 8.77812 -18.5084
L_Clavicle  -0.489042 20.732 2.36992
L_UpperArm  12.7018 3.97968 20.9917
L_Forearm  -26.748 25.3082 33.0983
L_Hand  0.641977 9.31447 5.16212
L_Thigh  -28.1003 6.19499 -9.57215
L_Calf  0.740102 -6.66171 29.7943
L_Foot  2.32001 4.63669 4.79927
L_Toe0  0.505156 0.034446 -6.1361
R_Thigh  16.1724 -2.58792 -7.00133
R_Calf  4.13663 8.50731 27.5311
R_Foot  -0.0330502 -1.83779 -3.8075
R_Toe0  -0.440103 -0.270035 -16.5565
724
root  -1.62068 33.5192 64.3509 -17.3223 1.48934 90.3625
Spine  -0.753699 -11.6525 -23.6083
Spine1  -0.388065 12.0363 6.30383
Neck  3.97569e-016 0 -2.38542e-015
Head  -22.8961 3.2367 42.0509
R_Clavicle  0.44674 -19.4201 3.07485
R_UpperArm  46.6943 -15.7662 38.0104
R_Forearm  -1.95587 -42.8162 34.1164
R_Hand  -0.738294 8.50675 -17.021
L_Clavicle  -0.490848 20.9614 2.37041
L_UpperArm  12.1007 3.81899 19.879
L_Forearm  -26.0403 25.1965 32.9066
L_Hand  0.620871 9.20387 5.03461
L_Thigh  -30.3261 6.19182 -10.2541
L_Calf  0.493502 -6.07275 29.4511
L_Foot  2.3861 4.73535 4.95055
L_Toe0  0.505156 0.034446 -6.1361
R_Thigh  17.2246 -3.42429 -6.76147
R_Calf  3.5341 8.57649 27.7811
R_Foot  -0.151035 -1.92241 -3.06481
R_Toe0  -1.55959 -0.268289 -17.1934
725
root  -1.79218 33.5058 64.1936 -19.644 1.67814 90.1322
Spine  -1.05435 -12.0239 -23.7271
Spine1  -0.606133 13.2071 6.43932
Neck  3.97569e-016 0 -2.38542e-015
Head  -21.92 2.21026 41.6974
R_Clavicle  0.443658 -19.6371 3.02367
R_UpperArm  46.6882 -16.1421 38.1571
R_Forearm  -4.50415 -43.2492 34.8818
R_Hand  -0.553701 7.93678 -15.4343
L_Clavicle  -0.492286 20.9863 2.34347
L_UpperArm  11.5998 3.8213 18.7251
L_Forearm  -25.703 25.3598 33.182
L_Hand  0.570859 8.82031 4.76259
L_Thigh  -31.9323 6.23417 -11.2241
L_Calf  -0.278812 -5.80843 29.5825
L_Foot  2.34398 4.70725 4.81413
L_Toe0  0.505156 0.034446 -6.1361
R_Thigh  19.0849 -4.18406 -6.89038
R_Calf  3.55468 8.96473 29.1877
R_Foot  -0.0793952 -1.61644 -3.00675
R_Toe0  -1.82653 -0.2733 -17.3451
